<?xml version="1.0" encoding="UTF-8" standalone="no"?>
<!-- Created with Inkscape (http://www.inkscape.org/) -->

<svg
   xmlns:dc="http://purl.org/dc/elements/1.1/"
   xmlns:cc="http://creativecommons.org/ns#"
   xmlns:rdf="http://www.w3.org/1999/02/22-rdf-syntax-ns#"
   xmlns:svg="http://www.w3.org/2000/svg"
   xmlns="http://www.w3.org/2000/svg"
   xmlns:sodipodi="http://sodipodi.sourceforge.net/DTD/sodipodi-0.dtd"
   xmlns:inkscape="http://www.inkscape.org/namespaces/inkscape"
   width="420mm"
   height="420mm"
   viewBox="0 0 420 420"
   version="1.1"
   id="svg8"
   inkscape:version="0.92.4 (5da689c313, 2019-01-14)"
   sodipodi:docname="targeto2.svg">
  <defs
     id="defs2" />
  <sodipodi:namedview
     id="base"
     pagecolor="#ffffff"
     bordercolor="#666666"
     borderopacity="1.0"
     inkscape:pageopacity="0.0"
     inkscape:pageshadow="2"
     inkscape:zoom="0.35"
     inkscape:cx="813.32241"
     inkscape:cy="810.00819"
     inkscape:document-units="mm"
     inkscape:current-layer="layer1"
     showgrid="false"
     inkscape:snap-object-midpoints="true"
     inkscape:window-width="1920"
     inkscape:window-height="986"
     inkscape:window-x="-11"
     inkscape:window-y="-11"
     inkscape:window-maximized="1"
     inkscape:snap-page="true" />
  <metadata
     id="metadata5">
    <rdf:RDF>
      <cc:Work
         rdf:about="">
        <dc:format>image/svg+xml</dc:format>
        <dc:type
           rdf:resource="http://purl.org/dc/dcmitype/StillImage" />
        <dc:title />
      </cc:Work>
    </rdf:RDF>
  </metadata>
  <g
     inkscape:label="Layer 1"
     inkscape:groupmode="layer"
     id="layer1"
     transform="translate(0,123)">
    <path
       style="fill:#ffffff;stroke-width:0.25994906"
       d="M 209.99997,-20.3685 A 107.36848,107.36866 0 0 0 102.6315,86.999825 107.36848,107.36866 0 0 0 209.99997,194.3685 107.36848,107.36866 0 0 0 317.3685,86.999825 107.36848,107.36866 0 0 0 209.99997,-20.3685 Z m 0,20.27285608 A 87.095643,87.095651 0 0 1 297.09566,86.999825 87.095643,87.095651 0 0 1 209.99997,174.09566 87.095643,87.095651 0 0 1 122.90434,86.999825 87.095643,87.095651 0 0 1 209.99997,-0.09564392 Z"
       id="path99"
       inkscape:connector-curvature="0" />
    <path
       style="fill:#0000ff;stroke-width:0.12836525"
       d="m 209.93014,-7.125822 a 94.00978,93.770595 0 0 0 -94.00983,93.770641 94.00978,93.770595 0 0 0 94.00983,93.770661 94.00978,93.770595 0 0 0 94.00983,-93.770661 94.00978,93.770595 0 0 0 -94.00983,-93.770641 z m 0,36.629168 a 57.287363,57.141608 0 0 1 57.28724,57.141473 57.287363,57.141608 0 0 1 -57.28724,57.141721 57.287363,57.141608 0 0 1 -57.28747,-57.141721 57.287363,57.141608 0 0 1 57.28747,-57.141473 z"
       id="path296"
       inkscape:connector-curvature="0" />
    <path
       style="fill:#0000ff;stroke-width:0.12836525"
       d="m 209.93014,180.41548 a 94.00978,93.770595 0 0 1 -94.00983,-93.770645 94.00978,93.770595 0 0 1 94.00983,-93.770657 94.00978,93.770595 0 0 1 94.00983,93.770657 94.00978,93.770595 0 0 1 -94.00983,93.770645 z m 0,-36.62917 A 57.287363,57.141608 0 0 0 267.21738,86.644835 57.287363,57.141608 0 0 0 209.93014,29.5031 57.287363,57.141608 0 0 0 152.64267,86.644835 57.287363,57.141608 0 0 0 209.93014,143.78631 Z"
       id="path296-0"
       inkscape:connector-curvature="0" />
    <path
       style="fill:#0000ff;stroke-width:0.17295124"
       d="m 58.691877,-112.82291 a 34.385215,34.309841 0 0 0 -33.213543,-8.88001 34.385215,34.309841 0 0 0 -24.3140412,24.260714 34.385215,34.309841 0 0 0 8.5006877,32.701115 l -0.1159825,0.115738 -0.00901,0.009 77.722789,77.552418 -0.05197,0.05185 a 34.554476,34.340624 34.649622 0 0 1.096231,0.990119 l 1.930058,1.925837 0.009,-0.009 0.140505,-0.140197 a 34.554476,34.340624 34.649622 0 0 30.160589,6.236049 34.554476,34.340624 34.649622 0 0 24.31402,-24.2607442 34.554476,34.340624 34.649622 0 0 -6.25194,-30.0922578 l 0.0666,-0.06644 0.18842,-0.188025 -80.277433,-80.101386 z"
       id="rect212"
       inkscape:connector-curvature="0" />
    <path
       style="fill:#0000ff;stroke-width:0.17295118"
       d="m 283.92108,-35.883874 a 34.309826,34.385213 0 0 0 -8.88,33.213541 34.309826,34.385213 0 0 0 24.26073,24.31403 34.309826,34.385213 0 0 0 32.70115,-8.500687 l 0.11572,0.115992 0.009,0.009 77.55239,-77.722805 0.0519,0.05197 a 34.340615,34.55447 34.647969 0 0 0.9901,-1.096221 l 1.92584,-1.930058 -0.009,-0.009 -0.14019,-0.140505 a 34.340615,34.55447 34.647969 0 0 6.23604,-30.160577 34.340615,34.55447 34.647969 0 0 -24.26072,-24.314016 34.340615,34.55447 34.647969 0 0 -30.09226,6.25193 l -0.0664,-0.0666 -0.18803,-0.18843 -80.10143,80.277446 z"
       id="rect212-7"
       inkscape:connector-curvature="0" />
    <path
       style="fill:#0000ff;stroke-width:0.12836525"
       d="M 210.59383,180.416 A 94.009781,93.770596 0 0 1 116.584,86.645356 94.009781,93.770596 0 0 1 210.59383,-7.125304 94.009781,93.770596 0 0 1 304.60366,86.645356 94.009781,93.770596 0 0 1 210.59383,180.416 Z m 0,-36.62917 a 57.287364,57.141607 0 0 0 57.28725,-57.141474 57.287364,57.141607 0 0 0 -57.28725,-57.14172 57.287364,57.141607 0 0 0 -57.28747,57.14172 57.287364,57.141607 0 0 0 57.28747,57.141474 z"
       id="path296-9"
       inkscape:connector-curvature="0" />
    <path
       style="fill:#0000ff;stroke-width:0.17295124"
       d="M 58.69188,286.95091 A 34.385216,34.309841 0 0 1 25.47833,295.83092 34.385216,34.309841 0 0 1 1.16429,271.57021 34.385216,34.309841 0 0 1 9.66498,238.8691 l -0.11598,-0.11574 -0.009,-0.009 77.72279,-77.55242 -0.052,-0.0519 a 34.340625,34.554477 55.350378 0 1 1.09623,-0.99011 l 1.93006,-1.92584 0.009,0.009 0.1405,0.14019 a 34.340625,34.554477 55.350378 0 1 30.1606,-6.23605 34.340625,34.554477 55.350378 0 1 24.31402,24.26075 34.340625,34.554477 55.350378 0 1 -6.25194,30.09226 l 0.0666,0.0664 0.18842,0.18802 -80.27744,80.10138 z"
       id="rect212-0"
       inkscape:connector-curvature="0" />
    <path
       style="fill:#0000ff;stroke-width:0.17295119"
       d="m 283.92109,209.69192 a 34.309825,34.385213 0 0 1 -8.87999,-33.21354 34.309825,34.385213 0 0 1 24.26073,-24.31403 34.309825,34.385213 0 0 1 32.70115,8.50069 l 0.1157,-0.116 0.009,-0.009 77.5524,77.72281 0.0519,-0.052 a 34.55447,34.340615 55.352031 0 1 0.99009,1.09622 l 1.92585,1.93006 -0.009,0.009 -0.1402,0.1405 a 34.55447,34.340615 55.352031 0 1 6.23604,30.16058 34.55447,34.340615 55.352031 0 1 -24.26073,24.31401 34.55447,34.340615 55.352031 0 1 -30.09225,-6.25193 l -0.0664,0.0666 -0.18801,0.18843 -80.10144,-80.27744 z"
       id="rect212-7-4"
       inkscape:connector-curvature="0" />
  </g>
</svg>
